<svg id="visual" viewBox="0 0 1550 400" width="1550" height="400" xmlns="http://www.w3.org/2000/svg" xmlns:xlink="http://www.w3.org/1999/xlink" version="1.1"><rect x="0" y="0" width="1550" height="400" fill="#9b8064"></rect><path d="M0 121L15.2 128.2C30.3 135.3 60.7 149.7 91 151.7C121.3 153.7 151.7 143.3 182.2 135.2C212.7 127 243.3 121 273.8 119C304.3 117 334.7 119 365 127.5C395.3 136 425.7 151 456 149.2C486.3 147.3 516.7 128.7 547 130C577.3 131.3 607.7 152.7 638 154.2C668.3 155.7 698.7 137.3 729.2 139.7C759.7 142 790.3 165 820.8 163C851.3 161 881.7 134 912 128.3C942.3 122.7 972.7 138.3 1003 148.3C1033.3 158.3 1063.7 162.7 1094 164.5C1124.3 166.3 1154.7 165.7 1185 160.8C1215.3 156 1245.7 147 1276.2 136.7C1306.7 126.3 1337.3 114.7 1367.8 117.2C1398.3 119.7 1428.7 136.3 1459 145.5C1489.3 154.7 1519.7 156.3 1534.8 157.2L1550 158L1550 401L1534.8 401C1519.7 401 1489.3 401 1459 401C1428.7 401 1398.3 401 1367.8 401C1337.3 401 1306.7 401 1276.2 401C1245.7 401 1215.3 401 1185 401C1154.7 401 1124.3 401 1094 401C1063.7 401 1033.3 401 1003 401C972.7 401 942.3 401 912 401C881.7 401 851.3 401 820.8 401C790.3 401 759.7 401 729.2 401C698.7 401 668.3 401 638 401C607.7 401 577.3 401 547 401C516.7 401 486.3 401 456 401C425.7 401 395.3 401 365 401C334.7 401 304.3 401 273.8 401C243.3 401 212.7 401 182.2 401C151.7 401 121.3 401 91 401C60.7 401 30.3 401 15.2 401L0 401Z" fill="#74512d"></path><path d="M0 231L15.2 230.3C30.3 229.7 60.7 228.3 91 227.2C121.3 226 151.7 225 182.2 222.2C212.7 219.3 243.3 214.7 273.8 211.3C304.3 208 334.7 206 365 196.8C395.3 187.7 425.7 171.3 456 171.7C486.3 172 516.7 189 547 191.5C577.3 194 607.7 182 638 172.8C668.3 163.7 698.7 157.3 729.2 166.8C759.7 176.3 790.3 201.7 820.8 202.5C851.3 203.3 881.7 179.7 912 178.2C942.3 176.7 972.7 197.3 1003 202.5C1033.3 207.7 1063.7 197.3 1094 186C1124.3 174.7 1154.7 162.3 1185 167C1215.3 171.7 1245.7 193.3 1276.2 193.2C1306.7 193 1337.3 171 1367.8 170.5C1398.3 170 1428.7 191 1459 200C1489.3 209 1519.7 206 1534.8 204.5L1550 203L1550 401L1534.8 401C1519.7 401 1489.3 401 1459 401C1428.7 401 1398.3 401 1367.8 401C1337.3 401 1306.7 401 1276.2 401C1245.7 401 1215.3 401 1185 401C1154.7 401 1124.3 401 1094 401C1063.7 401 1033.3 401 1003 401C972.7 401 942.3 401 912 401C881.7 401 851.3 401 820.8 401C790.3 401 759.7 401 729.2 401C698.7 401 668.3 401 638 401C607.7 401 577.3 401 547 401C516.7 401 486.3 401 456 401C425.7 401 395.3 401 365 401C334.7 401 304.3 401 273.8 401C243.3 401 212.7 401 182.2 401C151.7 401 121.3 401 91 401C60.7 401 30.3 401 15.2 401L0 401Z" fill="#8a6742"></path><path d="M0 229L15.2 226.5C30.3 224 60.7 219 91 222C121.3 225 151.7 236 182.2 240.7C212.7 245.3 243.3 243.7 273.8 243.3C304.3 243 334.7 244 365 248.2C395.3 252.3 425.7 259.7 456 262.8C486.3 266 516.7 265 547 256.8C577.3 248.7 607.7 233.3 638 228.3C668.3 223.3 698.7 228.7 729.2 235.3C759.7 242 790.3 250 820.8 243.5C851.3 237 881.7 216 912 206.5C942.3 197 972.7 199 1003 201.2C1033.3 203.3 1063.7 205.7 1094 209.7C1124.3 213.7 1154.7 219.3 1185 226.3C1215.3 233.3 1245.7 241.7 1276.2 237.3C1306.7 233 1337.3 216 1367.8 218.7C1398.3 221.3 1428.7 243.7 1459 250.7C1489.3 257.7 1519.7 249.3 1534.8 245.2L1550 241L1550 401L1534.8 401C1519.7 401 1489.3 401 1459 401C1428.7 401 1398.3 401 1367.8 401C1337.3 401 1306.7 401 1276.2 401C1245.7 401 1215.3 401 1185 401C1154.7 401 1124.3 401 1094 401C1063.7 401 1033.3 401 1003 401C972.7 401 942.3 401 912 401C881.7 401 851.3 401 820.8 401C790.3 401 759.7 401 729.2 401C698.7 401 668.3 401 638 401C607.7 401 577.3 401 547 401C516.7 401 486.3 401 456 401C425.7 401 395.3 401 365 401C334.7 401 304.3 401 273.8 401C243.3 401 212.7 401 182.2 401C151.7 401 121.3 401 91 401C60.7 401 30.3 401 15.2 401L0 401Z" fill="#a07d58"></path><path d="M0 292L15.2 292.3C30.3 292.7 60.7 293.3 91 288C121.3 282.7 151.7 271.3 182.2 266C212.7 260.7 243.3 261.3 273.8 257.3C304.3 253.3 334.7 244.7 365 248.2C395.3 251.7 425.7 267.3 456 277.3C486.3 287.3 516.7 291.7 547 289.2C577.3 286.7 607.7 277.3 638 278C668.3 278.7 698.7 289.3 729.2 289.3C759.7 289.3 790.3 278.7 820.8 273.8C851.3 269 881.7 270 912 266.3C942.3 262.7 972.7 254.3 1003 251.2C1033.3 248 1063.7 250 1094 252C1124.3 254 1154.7 256 1185 258.2C1215.3 260.3 1245.7 262.7 1276.2 261.3C1306.7 260 1337.3 255 1367.8 259.3C1398.3 263.7 1428.7 277.3 1459 282.3C1489.3 287.3 1519.7 283.7 1534.8 281.8L1550 280L1550 401L1534.8 401C1519.7 401 1489.3 401 1459 401C1428.7 401 1398.3 401 1367.8 401C1337.3 401 1306.7 401 1276.2 401C1245.7 401 1215.3 401 1185 401C1154.7 401 1124.3 401 1094 401C1063.7 401 1033.3 401 1003 401C972.7 401 942.3 401 912 401C881.7 401 851.3 401 820.8 401C790.3 401 759.7 401 729.2 401C698.7 401 668.3 401 638 401C607.7 401 577.3 401 547 401C516.7 401 486.3 401 456 401C425.7 401 395.3 401 365 401C334.7 401 304.3 401 273.8 401C243.3 401 212.7 401 182.2 401C151.7 401 121.3 401 91 401C60.7 401 30.3 401 15.2 401L0 401Z" fill="#b6956e"></path><path d="M0 315L15.2 310.7C30.3 306.3 60.7 297.7 91 295C121.3 292.3 151.7 295.7 182.2 298C212.7 300.3 243.3 301.7 273.8 305.2C304.3 308.7 334.7 314.3 365 320.3C395.3 326.3 425.7 332.7 456 334.7C486.3 336.7 516.7 334.3 547 332.2C577.3 330 607.7 328 638 323C668.3 318 698.7 310 729.2 304.7C759.7 299.3 790.3 296.7 820.8 304C851.3 311.3 881.7 328.7 912 328.7C942.3 328.7 972.7 311.3 1003 309.2C1033.3 307 1063.7 320 1094 327.3C1124.3 334.7 1154.7 336.3 1185 337.2C1215.3 338 1245.7 338 1276.2 334C1306.7 330 1337.3 322 1367.8 321.7C1398.3 321.3 1428.7 328.7 1459 330.7C1489.3 332.7 1519.7 329.3 1534.8 327.7L1550 326L1550 401L1534.8 401C1519.7 401 1489.3 401 1459 401C1428.7 401 1398.3 401 1367.8 401C1337.3 401 1306.7 401 1276.2 401C1245.7 401 1215.3 401 1185 401C1154.7 401 1124.3 401 1094 401C1063.7 401 1033.3 401 1003 401C972.7 401 942.3 401 912 401C881.7 401 851.3 401 820.8 401C790.3 401 759.7 401 729.2 401C698.7 401 668.3 401 638 401C607.7 401 577.3 401 547 401C516.7 401 486.3 401 456 401C425.7 401 395.3 401 365 401C334.7 401 304.3 401 273.8 401C243.3 401 212.7 401 182.2 401C151.7 401 121.3 401 91 401C60.7 401 30.3 401 15.2 401L0 401Z" fill="#cdad86"></path><path d="M0 351L15.2 350.2C30.3 349.3 60.7 347.7 91 342.8C121.3 338 151.7 330 182.2 331.8C212.7 333.7 243.3 345.3 273.8 347C304.3 348.7 334.7 340.3 365 339C395.3 337.7 425.7 343.3 456 343.2C486.3 343 516.7 337 547 334.2C577.3 331.3 607.7 331.7 638 331.2C668.3 330.7 698.7 329.3 729.2 338.2C759.7 347 790.3 366 820.8 373.5C851.3 381 881.7 377 912 368.8C942.3 360.7 972.7 348.3 1003 347.5C1033.3 346.7 1063.7 357.3 1094 364.3C1124.3 371.3 1154.7 374.7 1185 374.2C1215.3 373.7 1245.7 369.3 1276.2 362.5C1306.7 355.7 1337.3 346.3 1367.8 339.7C1398.3 333 1428.7 329 1459 335.2C1489.3 341.3 1519.7 357.7 1534.8 365.8L1550 374L1550 401L1534.8 401C1519.7 401 1489.3 401 1459 401C1428.7 401 1398.3 401 1367.8 401C1337.3 401 1306.7 401 1276.2 401C1245.7 401 1215.3 401 1185 401C1154.7 401 1124.3 401 1094 401C1063.7 401 1033.3 401 1003 401C972.7 401 942.3 401 912 401C881.7 401 851.3 401 820.8 401C790.3 401 759.7 401 729.2 401C698.7 401 668.3 401 638 401C607.7 401 577.3 401 547 401C516.7 401 486.3 401 456 401C425.7 401 395.3 401 365 401C334.7 401 304.3 401 273.8 401C243.3 401 212.7 401 182.2 401C151.7 401 121.3 401 91 401C60.7 401 30.3 401 15.2 401L0 401Z" fill="#e4c59e"></path></svg>